<?xml version="1.0" encoding="utf-8"?>
<!-- Generator: Adobe Illustrator 25.4.0, SVG Export Plug-In . SVG Version: 6.00 Build 0)  -->
<svg version="1.1" id="Layer_1" xmlns="http://www.w3.org/2000/svg" xmlns:xlink="http://www.w3.org/1999/xlink" x="0px" y="0px"
	 viewBox="0 0 128.9 21.8" style="enable-background:new 0 0 128.9 21.8;" xml:space="preserve">
<style type="text/css">
	.st0{fill-rule:evenodd;clip-rule:evenodd;fill:#3D5EA8;}
	.st1{fill:#3D5EA8;}
</style>
<g>
	<path class="st0" d="M12.7,0.6C14.2,1.8,16,2,17.9,1.8c-0.3,0.9,0,1.6,0.6,2.1C18.6,4,18.6,4,18.7,4.1c0.3,0.3,0.6,0.5,0.9,0.8
		c1.1,0.8,2.2,0.4,2.6-0.9c-0.3-0.1-0.6-0.3-0.9-0.4l0,0c-0.2-0.1-0.4-0.2-0.6-0.3l0-0.1c0.1,0,0.2,0,0.3,0c0.1,0,0.2,0,0.4,0.1
		l0-0.1l0,0l0,0c-0.2-0.5-0.3-1-0.4-1.4c0.3-0.2,0.6-0.1,0.7,0.2c0.1,0.2,0.1,0.5,0.2,0.7c0.1,0.2,0.1,0.4,0.2,0.6
		c0,0.1,0.1,0.2,0.2,0.3l0,0h0c0,0,0.1,0.1,0.1,0.1c0.4-1.9-0.8-3.2-2.6-3.2c-0.1,0-0.2,0-0.4,0c-1.1,0-2.2,0-3.2,0
		c-0.8,0-1.5,0-2.3,0C13.4,0.6,13,0.6,12.7,0.6z"/>
	<polygon class="st0" points="14.3,17.1 14.3,17.1 14.3,17.1 	"/>
	<path class="st0" d="M14.3,17.1c1.8-2.2,3.5-4.4,5.4-6.7h-0.6c-0.9,0-1.8,0-2.7,0h0h0c-3.5,0-7.1,0-10.7,0c0,0-0.1,0-0.1,0l0,0l0,0
		l0,0h0c-0.2,0-0.4,0-0.5-0.1c-0.2-0.1-0.5-0.4-0.5-0.6c0-0.2,0.3-0.4,0.5-0.5c0.1-0.1,0.3-0.1,0.4,0c0.1,0,0.1,0,0.2,0
		c1.9,0,3.8,0,5.8,0h0c1,0,1,0,1.5-0.9c-1.2,0-2.4,0-3.7,0l0,0h0l0,0l0,0c-3,0-5.9,0-8.8-0.7c0.2,0,0.5,0,0.7,0l0,0
		c0.5,0,1-0.1,1.5-0.1C4.2,7.3,5.6,7.3,7,7.2c2.3-0.1,4.6-0.2,6.9-0.3c0.2,0,0.4-0.1,0.5-0.3c0.1-0.1,0.2-0.3,0.4-0.5v0l0,0l0,0h0
		C14.9,6.2,15,6.1,15,6h-0.6c-1.2,0-2.5,0-3.7,0h0h0h0h0c-2.5,0-5,0-7.5,0c0,0-0.1,0-0.1,0C3,6,2.9,6,2.8,5.9
		C2.5,5.9,2.2,5.7,2.2,5.3c0-0.4,0.3-0.6,0.7-0.6c0.6,0,1.2,0,1.8,0l0.1,0c0.9,0,1.9,0,2.8,0c2.8,0,5.6,0,8.4,0
		c0.3,0,0.5-0.1,0.8-0.2c0.6-0.3,0.9-0.3,1.3,0.2c0.5,0.5,1,1.1,1.4,1.7c0.2,0.3,0.5,0.4,0.9,0.4c1.2,0,2.4,0,3.7,0.1
		c0.4,0,0.8,0,1.2,0c0,0,0.1,0,0.1,0c0,0,0.1,0,0.1,0c0,0-0.1,0.1-0.1,0.1c-0.1,0.1-0.1,0.2-0.2,0.2c-2.6,3.2-5.1,6.4-7.7,9.6
		c-0.1,0.1-0.2,0.2-0.4,0.2c-0.7,0-1.4,0-2.1,0h0h0h0l0,0C14.8,17.1,14.5,17.1,14.3,17.1z M15.6,8.9c0.4,0,0.8,0,1.2,0
		c1.6,0,3.2,0,4.7,0c0.1,0,0.4-0.3,0.4-0.5C22.1,8.1,21.8,8,21.6,8c-0.3,0-0.6,0-0.9,0h0c-0.5,0-1,0-1.5,0c-0.4,0-0.6-0.1-0.8-0.4
		C18.2,7.4,18,7.2,17.8,7l0,0c-0.1-0.1-0.2-0.2-0.3-0.3C16.9,7.4,16.3,8.1,15.6,8.9L15.6,8.9z"/>
	<path class="st0" d="M3.3,11.9c-0.1,0-0.1,0-0.2-0.1c3.9-0.5,7.8-0.5,11.7-0.5l0,0h0c1,0,2.1,0,3.1,0c-0.1,0.2-0.2,0.3-0.4,0.4l0,0
		l0,0l0,0c-0.2,0.3-0.4,0.5-0.6,0.8c-0.5,0.6-1,1.2-1.5,1.8c-1.1,1.3-2.1,2.6-3.2,4c-1,1.2-2.3,1.5-3.8,1.2
		c-1.4-0.3-2.3-1.2-2.7-2.6c-0.3-1.2,0-2.3,0.8-3.3c0.1-0.1,0.3-0.2,0.5-0.2c1,0,1.9,0,2.9,0c0.8,0,1.5,0,2.3,0c0.2,0,0.4,0,0.5-0.1
		c0.1-0.1,0.1-0.4,0.1-0.5c-0.1-0.1-0.3-0.3-0.5-0.3c-0.3,0-0.6,0-1,0c-0.4,0-0.8,0-1.1,0c-1.8-0.1-3.5-0.2-5.3-0.4h0l0,0
		C4.4,12,4,12,3.6,11.9C3.5,11.9,3.4,11.9,3.3,11.9L3.3,11.9L3.3,11.9L3.3,11.9L3.3,11.9z"/>
	<path class="st0" d="M11.3,20.4c-1.6,1.2-4.5,1.1-6.2-0.9c-1.5-1.8-1.5-4.6,0.1-6.1c-0.8,2-0.9,4,0.5,5.7
		C7.2,20.7,9.1,20.9,11.3,20.4L11.3,20.4z"/>
	<g>
		<path class="st1" d="M30.8,6.9c0.2,0,0.3,0.1,0.5,0.2c0.1,0.1,0.1,0.3,0.1,0.5l-1.1,5.1c-0.2,0.9-0.7,1.7-1.5,2.4
			c-0.8,0.7-1.7,1-2.6,1c-0.9,0-1.6-0.3-2.2-1c-0.5-0.7-0.7-1.4-0.5-2.4c0.2-0.9,0.7-1.7,1.5-2.4c0.8-0.7,1.7-1,2.6-1
			c0.8,0,1.4,0.2,1.8,0.6l0.5-2.3c0-0.2,0.1-0.4,0.3-0.5C30.4,7,30.6,6.9,30.8,6.9L30.8,6.9z M25.8,11.3c-0.5,0.4-0.7,0.8-0.9,1.4
			c-0.1,0.5,0,1,0.3,1.4c0.3,0.4,0.7,0.6,1.2,0.6c0.5,0,1-0.2,1.5-0.6s0.7-0.8,0.9-1.4c0.1-0.5,0-1-0.3-1.4
			c-0.3-0.4-0.7-0.6-1.2-0.6C26.8,10.7,26.3,10.9,25.8,11.3z"/>
		<path class="st1" d="M38,11.3c0,0.1,0,0.2,0,0.3c0,0.1-0.1,0.2-0.1,0.2c-0.1,0.2-0.3,0.3-0.5,0.4c-0.6,0.2-1.4,0.6-2.3,1
			c-1.2,0.5-1.9,0.8-2.1,0.9c0.2,0.4,0.6,0.6,1.3,0.6c0.4,0,0.8-0.1,1.2-0.4c0.4-0.2,0.7-0.6,0.9-0.9c0.2-0.3,0.4-0.5,0.8-0.5
			c0.2,0,0.4,0.1,0.5,0.3c0.1,0.1,0.1,0.3,0.1,0.4c0,0.1,0,0.2-0.1,0.3c-0.4,0.7-0.9,1.2-1.6,1.6c-0.7,0.4-1.4,0.6-2.1,0.6
			c-0.9,0-1.6-0.3-2.2-1c-0.5-0.7-0.7-1.4-0.5-2.4c0.2-0.9,0.7-1.7,1.5-2.4c0.8-0.7,1.7-1,2.6-1c0.7,0,1.2,0.2,1.7,0.5
			C37.5,10.2,37.8,10.7,38,11.3z M35,10.7c-0.5,0-1,0.2-1.5,0.6c-0.5,0.4-0.7,0.8-0.9,1.4l0,0l3.6-1.5C36,10.9,35.6,10.7,35,10.7z"
			/>
		<path class="st1" d="M41.1,6.9c0.2,0,0.3,0.1,0.5,0.2c0.1,0.1,0.1,0.3,0.1,0.5L40,15.3c0,0.2-0.1,0.4-0.3,0.5
			c-0.2,0.1-0.4,0.2-0.5,0.2h0c-0.2,0-0.3-0.1-0.4-0.2c-0.1-0.1-0.1-0.3-0.1-0.5l1.6-7.7c0-0.2,0.1-0.4,0.3-0.5
			C40.7,7,40.8,6.9,41.1,6.9L41.1,6.9z"/>
		<path class="st1" d="M43.6,9.3c0.2,0,0.3,0.1,0.4,0.2c0.1,0.1,0.1,0.3,0.1,0.5L43,15.3c0,0.2-0.1,0.4-0.3,0.5
			c-0.2,0.1-0.3,0.2-0.5,0.2h0c-0.2,0-0.3-0.1-0.5-0.2c-0.1-0.1-0.1-0.3-0.1-0.5l1.1-5.3c0-0.2,0.1-0.4,0.3-0.5
			C43.2,9.4,43.4,9.3,43.6,9.3L43.6,9.3z M43.7,8.5c-0.2,0-0.4-0.1-0.5-0.2c-0.1-0.2-0.2-0.4-0.1-0.6c0-0.2,0.2-0.4,0.4-0.6
			c0.2-0.2,0.4-0.2,0.6-0.2c0.2,0,0.4,0.1,0.5,0.2c0.1,0.2,0.2,0.3,0.1,0.6c0,0.2-0.2,0.4-0.4,0.6C44.2,8.5,44,8.5,43.7,8.5z"/>
		<path class="st1" d="M47.4,14l2.8-4.3c0.2-0.3,0.4-0.4,0.7-0.4h0c0.3,0,0.4,0.1,0.5,0.3c0.1,0.1,0.1,0.2,0,0.4
			c0,0.1-0.1,0.2-0.1,0.3l-3.2,5.1C47.9,15.8,47.5,16,47,16c-0.5,0-0.8-0.2-0.9-0.7l-1.1-5.1c0-0.1,0-0.2,0-0.3
			c0-0.1,0.1-0.3,0.2-0.4c0.2-0.2,0.4-0.3,0.7-0.3h0c0.3,0,0.5,0.1,0.6,0.4c0.5,2.2,0.7,3.4,0.8,3.8C47.3,13.5,47.3,13.7,47.4,14z"
			/>
		<path class="st1" d="M57.9,10.3c0.5,0.7,0.7,1.4,0.5,2.4l-0.6,2.7c0,0.2-0.1,0.4-0.3,0.5c-0.2,0.1-0.4,0.2-0.5,0.2h0
			c-0.2,0-0.3-0.1-0.4-0.2c-0.1-0.1-0.1-0.3-0.1-0.5c-0.5,0.5-1.2,0.7-2.1,0.7c-0.9,0-1.6-0.3-2.2-1c-0.5-0.7-0.7-1.4-0.5-2.4
			c0.2-0.9,0.7-1.7,1.5-2.4c0.8-0.7,1.7-1,2.6-1S57.4,9.6,57.9,10.3z M53.9,11.3c-0.5,0.4-0.7,0.8-0.9,1.4c-0.1,0.5,0,1,0.3,1.4
			c0.3,0.4,0.7,0.6,1.3,0.6c0.5,0,1-0.2,1.5-0.6c0.5-0.4,0.7-0.8,0.9-1.4c0.1-0.5,0-1-0.3-1.4c-0.3-0.4-0.7-0.6-1.2-0.6
			C54.9,10.7,54.4,10.9,53.9,11.3z"/>
		<path class="st1" d="M67.2,6.9c0.2,0,0.3,0.1,0.5,0.2c0.1,0.1,0.1,0.3,0.1,0.5v0c0,0.2-0.1,0.4-0.3,0.5c-0.2,0.1-0.4,0.2-0.5,0.2
			h-0.3c-0.3,0-0.6,0.1-0.9,0.3c-0.3,0.2-0.4,0.4-0.5,0.6h1.5c0.2,0,0.3,0.1,0.5,0.2c0.1,0.1,0.1,0.3,0.1,0.5v0
			c0,0.2-0.1,0.4-0.3,0.5c-0.2,0.1-0.3,0.2-0.5,0.2h-1.5l-1,4.6c0,0.2-0.1,0.4-0.3,0.5c-0.2,0.1-0.4,0.2-0.5,0.2h0
			c-0.2,0-0.3-0.1-0.4-0.2c-0.1-0.1-0.1-0.3-0.1-0.5l1.2-5.8c0.2-0.7,0.5-1.3,1.1-1.8c0.6-0.5,1.3-0.8,2-0.8H67.2z"/>
		<path class="st1" d="M73.8,10.3c0.5,0.7,0.7,1.4,0.5,2.4l-0.6,2.7c0,0.2-0.1,0.4-0.3,0.5C73.2,15.9,73,16,72.8,16h0
			c-0.2,0-0.3-0.1-0.4-0.2c-0.1-0.1-0.1-0.3-0.1-0.5C71.7,15.8,71,16,70.2,16c-0.9,0-1.6-0.3-2.2-1c-0.5-0.7-0.7-1.4-0.5-2.4
			c0.2-0.9,0.7-1.7,1.5-2.4c0.8-0.7,1.7-1,2.6-1S73.2,9.6,73.8,10.3z M69.8,11.3c-0.5,0.4-0.7,0.8-0.9,1.4c-0.1,0.5,0,1,0.3,1.4
			c0.3,0.4,0.7,0.6,1.3,0.6s1-0.2,1.5-0.6c0.5-0.4,0.7-0.8,0.9-1.4c0.1-0.5,0-1-0.3-1.4c-0.3-0.4-0.7-0.6-1.2-0.6
			C70.8,10.7,70.3,10.9,69.8,11.3z"/>
		<path class="st1" d="M77.6,10.7c-0.2,0-0.3,0.1-0.5,0.2c-0.1,0.1-0.2,0.3-0.3,0.4c-0.1,0.2,0,0.4,0.2,0.5c0.1,0,0.4,0.1,0.9,0.3
			c0.4,0.1,0.7,0.3,0.9,0.5c0.3,0.3,0.3,0.7,0.2,1.3c-0.1,0.6-0.4,1-0.9,1.4c-0.5,0.4-1,0.6-1.6,0.6h-1.5c-0.2,0-0.3-0.1-0.4-0.2
			c-0.1-0.1-0.1-0.3-0.1-0.5v0c0-0.2,0.1-0.4,0.3-0.5c0.2-0.1,0.4-0.2,0.5-0.2H77c0.2,0,0.3-0.1,0.5-0.2c0.1-0.1,0.2-0.3,0.3-0.4
			c0-0.2,0-0.4-0.2-0.5c-0.1,0-0.4-0.1-0.9-0.3c-0.4-0.1-0.7-0.3-0.9-0.5c-0.3-0.3-0.3-0.8-0.2-1.3c0.1-0.6,0.4-1,0.9-1.4
			c0.5-0.4,1-0.6,1.6-0.6h1.1c0.2,0,0.3,0.1,0.5,0.2c0.1,0.1,0.1,0.3,0.1,0.5v0c0,0.2-0.1,0.4-0.3,0.5c-0.2,0.1-0.3,0.2-0.5,0.2
			H77.6z"/>
		<path class="st1" d="M82.3,6.9c0.2,0,0.3,0.1,0.5,0.2c0.1,0.1,0.1,0.3,0.1,0.5l-0.4,1.7h0.9c0.2,0,0.3,0.1,0.4,0.2
			c0.1,0.1,0.1,0.3,0.1,0.5v0c0,0.2-0.1,0.4-0.3,0.5c-0.2,0.1-0.3,0.2-0.5,0.2h-0.9l-0.7,3.5c0,0.1,0,0.2,0.1,0.3
			c0.1,0.1,0.2,0.1,0.3,0.1h0.5c0.2,0,0.3,0.1,0.4,0.2c0.1,0.1,0.1,0.3,0.1,0.5v0c0,0.2-0.1,0.4-0.3,0.5c-0.2,0.1-0.4,0.2-0.5,0.2
			h-0.5c-0.5,0-0.9-0.2-1.2-0.5c-0.3-0.4-0.4-0.8-0.3-1.3l1.4-6.6c0-0.2,0.1-0.4,0.3-0.5C81.9,7,82.1,6.9,82.3,6.9L82.3,6.9z"/>
		<path class="st1" d="M90.4,10.3c0.5,0.7,0.7,1.4,0.5,2.4l-0.6,2.7c0,0.2-0.1,0.4-0.3,0.5c-0.2,0.1-0.4,0.2-0.5,0.2h0
			c-0.2,0-0.3-0.1-0.4-0.2c-0.1-0.1-0.1-0.3-0.1-0.5c-0.5,0.5-1.2,0.7-2.1,0.7c-0.9,0-1.6-0.3-2.2-1c-0.5-0.7-0.7-1.4-0.5-2.4
			c0.2-0.9,0.7-1.7,1.5-2.4c0.8-0.7,1.7-1,2.6-1S89.9,9.6,90.4,10.3z M86.5,11.3c-0.5,0.4-0.7,0.8-0.9,1.4c-0.1,0.5,0,1,0.3,1.4
			c0.3,0.4,0.7,0.6,1.3,0.6s1-0.2,1.5-0.6c0.5-0.4,0.7-0.8,0.9-1.4c0.1-0.5,0-1-0.3-1.4c-0.3-0.4-0.7-0.6-1.2-0.6
			C87.4,10.7,86.9,10.9,86.5,11.3z"/>
	</g>
	<g>
		<path class="st1" d="M16.1,21.2c-0.3,0-0.5,0-0.7-0.1s-0.4-0.2-0.5-0.3l0.2-0.4c0.1,0.1,0.3,0.2,0.5,0.2s0.4,0.1,0.6,0.1
			c0.3,0,0.4,0,0.6-0.1c0.1-0.1,0.2-0.2,0.2-0.3c0-0.1,0-0.2-0.1-0.2S16.6,20,16.5,20c-0.1,0-0.2-0.1-0.4-0.1c-0.1,0-0.3,0-0.4-0.1
			c-0.1,0-0.3-0.1-0.4-0.1s-0.2-0.1-0.3-0.3c-0.1-0.1-0.1-0.2-0.1-0.4c0-0.2,0.1-0.4,0.2-0.5c0.1-0.1,0.3-0.2,0.4-0.3
			s0.4-0.1,0.7-0.1c0.2,0,0.4,0,0.6,0.1s0.4,0.1,0.5,0.2l-0.2,0.4c-0.1-0.1-0.3-0.2-0.4-0.2c-0.2,0-0.3-0.1-0.5-0.1
			c-0.2,0-0.4,0-0.5,0.1c-0.1,0.1-0.2,0.2-0.2,0.3c0,0.1,0,0.2,0.1,0.2c0.1,0.1,0.2,0.1,0.3,0.1c0.1,0,0.2,0.1,0.4,0.1
			c0.1,0,0.3,0,0.4,0.1c0.1,0,0.3,0.1,0.4,0.1c0.1,0.1,0.2,0.1,0.3,0.2c0.1,0.1,0.1,0.2,0.1,0.4c0,0.2-0.1,0.3-0.2,0.5
			c-0.1,0.1-0.3,0.2-0.5,0.3S16.3,21.2,16.1,21.2z"/>
		<path class="st1" d="M19.7,21.2c-0.2,0-0.4,0-0.6-0.1s-0.3-0.2-0.4-0.3s-0.1-0.3-0.1-0.5c0-0.2,0-0.3,0.1-0.5
			c0.1-0.1,0.2-0.2,0.4-0.3s0.4-0.1,0.7-0.1h1v0.4h-1c-0.3,0-0.5,0-0.6,0.1c-0.1,0.1-0.1,0.2-0.1,0.3c0,0.2,0.1,0.3,0.2,0.4
			c0.1,0.1,0.3,0.1,0.5,0.1c0.2,0,0.4,0,0.6-0.1s0.3-0.2,0.3-0.4l0.1,0.4c-0.1,0.2-0.2,0.3-0.4,0.4C20.2,21.2,20,21.2,19.7,21.2z
			 M20.7,21.2v-0.7l0-0.1v-1.1c0-0.2-0.1-0.4-0.2-0.6c-0.1-0.1-0.3-0.2-0.6-0.2c-0.2,0-0.4,0-0.5,0.1s-0.3,0.1-0.4,0.2l-0.2-0.4
			c0.2-0.1,0.4-0.2,0.6-0.3s0.5-0.1,0.7-0.1c0.4,0,0.8,0.1,1,0.3c0.2,0.2,0.3,0.5,0.3,0.9v1.9H20.7z"/>
		<path class="st1" d="M22.6,18.6v-0.5h2v0.5H22.6z M23.1,21.2v-3.4c0-0.3,0.1-0.5,0.3-0.7c0.2-0.2,0.4-0.3,0.8-0.3
			c0.1,0,0.2,0,0.3,0c0.1,0,0.2,0.1,0.3,0.1l-0.2,0.4c-0.1,0-0.1-0.1-0.2-0.1s-0.2,0-0.2,0c-0.2,0-0.3,0-0.4,0.1
			c-0.1,0.1-0.1,0.2-0.1,0.4v0.4l0,0.3v2.7H23.1z"/>
		<path class="st1" d="M27.1,21.2c-0.3,0-0.6-0.1-0.9-0.2c-0.3-0.1-0.4-0.3-0.6-0.6c-0.1-0.2-0.2-0.5-0.2-0.8c0-0.3,0.1-0.6,0.2-0.8
			c0.1-0.2,0.3-0.4,0.6-0.6s0.5-0.2,0.8-0.2c0.3,0,0.6,0.1,0.8,0.2s0.4,0.3,0.5,0.6c0.1,0.2,0.2,0.5,0.2,0.8c0,0,0,0.1,0,0.1
			c0,0,0,0.1,0,0.1h-2.6v-0.4h2.3L28,19.6c0-0.2,0-0.4-0.1-0.5c-0.1-0.2-0.2-0.3-0.4-0.4s-0.3-0.1-0.5-0.1c-0.2,0-0.4,0-0.5,0.1
			s-0.3,0.2-0.4,0.4C26,19.2,26,19.4,26,19.6v0.1c0,0.2,0,0.4,0.1,0.6c0.1,0.2,0.2,0.3,0.4,0.4c0.2,0.1,0.4,0.1,0.6,0.1
			c0.2,0,0.3,0,0.5-0.1c0.1-0.1,0.3-0.2,0.4-0.3l0.3,0.4c-0.1,0.2-0.3,0.3-0.5,0.4S27.4,21.2,27.1,21.2z"/>
		<path class="st1" d="M31.8,18.6v-0.5h2v0.5H31.8z M32.4,21.2v-3.4c0-0.3,0.1-0.5,0.3-0.7c0.2-0.2,0.4-0.3,0.8-0.3
			c0.1,0,0.2,0,0.3,0c0.1,0,0.2,0.1,0.3,0.1l-0.2,0.4c-0.1,0-0.1-0.1-0.2-0.1s-0.2,0-0.2,0c-0.2,0-0.3,0-0.4,0.1
			c-0.1,0.1-0.1,0.2-0.1,0.4v0.4l0,0.3v2.7H32.4z"/>
		<path class="st1" d="M35.9,21.2c-0.2,0-0.4,0-0.6-0.1s-0.3-0.2-0.4-0.3s-0.1-0.3-0.1-0.5c0-0.2,0-0.3,0.1-0.5
			c0.1-0.1,0.2-0.2,0.4-0.3s0.4-0.1,0.7-0.1h1v0.4h-1c-0.3,0-0.5,0-0.6,0.1c-0.1,0.1-0.1,0.2-0.1,0.3c0,0.2,0.1,0.3,0.2,0.4
			c0.1,0.1,0.3,0.1,0.5,0.1c0.2,0,0.4,0,0.6-0.1s0.3-0.2,0.3-0.4l0.1,0.4c-0.1,0.2-0.2,0.3-0.4,0.4C36.4,21.2,36.2,21.2,35.9,21.2z
			 M36.9,21.2v-0.7l0-0.1v-1.1c0-0.2-0.1-0.4-0.2-0.6c-0.1-0.1-0.3-0.2-0.6-0.2c-0.2,0-0.4,0-0.5,0.1s-0.3,0.1-0.4,0.2l-0.2-0.4
			c0.2-0.1,0.4-0.2,0.6-0.3s0.5-0.1,0.7-0.1c0.4,0,0.8,0.1,1,0.3c0.2,0.2,0.3,0.5,0.3,0.9v1.9H36.9z"/>
		<path class="st1" d="M40.1,21.2c-0.3,0-0.5,0-0.7-0.1s-0.4-0.2-0.5-0.3l0.2-0.4c0.1,0.1,0.3,0.2,0.5,0.2s0.4,0.1,0.6,0.1
			c0.3,0,0.4,0,0.6-0.1c0.1-0.1,0.2-0.2,0.2-0.3c0-0.1,0-0.2-0.1-0.2S40.6,20,40.5,20c-0.1,0-0.2-0.1-0.4-0.1c-0.1,0-0.3,0-0.4-0.1
			c-0.1,0-0.3-0.1-0.4-0.1s-0.2-0.1-0.3-0.3c-0.1-0.1-0.1-0.2-0.1-0.4c0-0.2,0.1-0.4,0.2-0.5c0.1-0.1,0.3-0.2,0.4-0.3
			s0.4-0.1,0.7-0.1c0.2,0,0.4,0,0.6,0.1s0.4,0.1,0.5,0.2l-0.2,0.4c-0.1-0.1-0.3-0.2-0.4-0.2c-0.2,0-0.3-0.1-0.5-0.1
			c-0.2,0-0.4,0-0.5,0.1c-0.1,0.1-0.2,0.2-0.2,0.3c0,0.1,0,0.2,0.1,0.2c0.1,0.1,0.2,0.1,0.3,0.1c0.1,0,0.2,0.1,0.4,0.1
			c0.1,0,0.3,0,0.4,0.1c0.1,0,0.3,0.1,0.4,0.1c0.1,0.1,0.2,0.1,0.3,0.2c0.1,0.1,0.1,0.2,0.1,0.4c0,0.2-0.1,0.3-0.2,0.5
			c-0.1,0.1-0.3,0.2-0.5,0.3S40.4,21.2,40.1,21.2z"/>
		<path class="st1" d="M42.4,18.6v-0.5h2v0.5H42.4z M43.9,21.2c-0.3,0-0.6-0.1-0.7-0.3c-0.2-0.2-0.3-0.4-0.3-0.7v-2.8h0.6v2.8
			c0,0.2,0,0.3,0.1,0.4c0.1,0.1,0.2,0.1,0.4,0.1c0.2,0,0.3,0,0.4-0.1l0.2,0.4c-0.1,0.1-0.2,0.1-0.3,0.2C44.1,21.2,44,21.2,43.9,21.2
			z"/>
		<path class="st1" d="M49.1,21.2c-0.3,0-0.5,0-0.7-0.1S48,21,47.8,20.9l0.2-0.4c0.1,0.1,0.3,0.2,0.5,0.2s0.4,0.1,0.6,0.1
			c0.3,0,0.4,0,0.6-0.1c0.1-0.1,0.2-0.2,0.2-0.3c0-0.1,0-0.2-0.1-0.2S49.6,20,49.5,20c-0.1,0-0.2-0.1-0.4-0.1c-0.1,0-0.3,0-0.4-0.1
			c-0.1,0-0.3-0.1-0.4-0.1s-0.2-0.1-0.3-0.3c-0.1-0.1-0.1-0.2-0.1-0.4c0-0.2,0.1-0.4,0.2-0.5c0.1-0.1,0.3-0.2,0.4-0.3
			s0.4-0.1,0.7-0.1c0.2,0,0.4,0,0.6,0.1s0.4,0.1,0.5,0.2l-0.2,0.4c-0.1-0.1-0.3-0.2-0.4-0.2c-0.2,0-0.3-0.1-0.5-0.1
			c-0.2,0-0.4,0-0.5,0.1c-0.1,0.1-0.2,0.2-0.2,0.3c0,0.1,0,0.2,0.1,0.2c0.1,0.1,0.2,0.1,0.3,0.1c0.1,0,0.2,0.1,0.4,0.1
			c0.1,0,0.3,0,0.4,0.1c0.1,0,0.3,0.1,0.4,0.1c0.1,0.1,0.2,0.1,0.3,0.2c0.1,0.1,0.1,0.2,0.1,0.4c0,0.2-0.1,0.3-0.2,0.5
			c-0.1,0.1-0.3,0.2-0.5,0.3S49.4,21.2,49.1,21.2z"/>
		<path class="st1" d="M53.2,21.2c-0.3,0-0.6-0.1-0.9-0.2c-0.3-0.1-0.4-0.3-0.6-0.6c-0.1-0.2-0.2-0.5-0.2-0.8c0-0.3,0.1-0.6,0.2-0.8
			c0.1-0.2,0.3-0.4,0.6-0.6s0.5-0.2,0.8-0.2c0.3,0,0.6,0.1,0.8,0.2s0.4,0.3,0.5,0.6c0.1,0.2,0.2,0.5,0.2,0.8c0,0,0,0.1,0,0.1
			c0,0,0,0.1,0,0.1H52v-0.4h2.3l-0.2,0.1c0-0.2,0-0.4-0.1-0.5c-0.1-0.2-0.2-0.3-0.4-0.4s-0.3-0.1-0.5-0.1c-0.2,0-0.4,0-0.5,0.1
			s-0.3,0.2-0.4,0.4c-0.1,0.2-0.1,0.3-0.1,0.5v0.1c0,0.2,0,0.4,0.1,0.6c0.1,0.2,0.2,0.3,0.4,0.4c0.2,0.1,0.4,0.1,0.6,0.1
			c0.2,0,0.3,0,0.5-0.1c0.1-0.1,0.3-0.2,0.4-0.3l0.3,0.4c-0.1,0.2-0.3,0.3-0.5,0.4S53.5,21.2,53.2,21.2z"/>
		<path class="st1" d="M57.5,21.2c-0.3,0-0.6-0.1-0.8-0.2c-0.2-0.1-0.4-0.3-0.6-0.6c-0.1-0.2-0.2-0.5-0.2-0.8c0-0.3,0.1-0.6,0.2-0.8
			c0.1-0.2,0.3-0.4,0.6-0.6s0.5-0.2,0.8-0.2c0.3,0,0.5,0.1,0.8,0.2c0.2,0.1,0.4,0.3,0.5,0.5L58.3,19c-0.1-0.2-0.2-0.3-0.4-0.3
			s-0.3-0.1-0.5-0.1c-0.2,0-0.4,0-0.5,0.1c-0.2,0.1-0.3,0.2-0.4,0.4c-0.1,0.2-0.1,0.4-0.1,0.6c0,0.2,0,0.4,0.1,0.6
			c0.1,0.2,0.2,0.3,0.4,0.4c0.2,0.1,0.3,0.1,0.5,0.1c0.2,0,0.3,0,0.5-0.1c0.1-0.1,0.3-0.2,0.4-0.3l0.4,0.3c-0.1,0.2-0.3,0.4-0.5,0.5
			C58,21.2,57.8,21.2,57.5,21.2z"/>
		<path class="st1" d="M61.5,21.2c-0.3,0-0.5,0-0.7-0.1c-0.2-0.1-0.4-0.2-0.5-0.4c-0.1-0.2-0.2-0.5-0.2-0.8v-1.8h0.6v1.7
			c0,0.3,0.1,0.5,0.2,0.7c0.1,0.2,0.4,0.2,0.6,0.2c0.2,0,0.4,0,0.5-0.1c0.1-0.1,0.3-0.2,0.3-0.4c0.1-0.2,0.1-0.3,0.1-0.6v-1.6H63
			v3.1h-0.5v-0.8l0.1,0.2c-0.1,0.2-0.3,0.4-0.5,0.5C61.9,21.2,61.7,21.2,61.5,21.2z"/>
		<path class="st1" d="M64.8,21.2v-3.1h0.5v0.8l-0.1-0.2c0.1-0.2,0.2-0.4,0.4-0.5c0.2-0.1,0.5-0.2,0.7-0.2v0.5c0,0,0,0-0.1,0
			s0,0-0.1,0c-0.3,0-0.5,0.1-0.7,0.3c-0.2,0.2-0.3,0.4-0.3,0.8v1.5H64.8z"/>
		<path class="st1" d="M69.2,21.2c-0.3,0-0.6-0.1-0.9-0.2c-0.3-0.1-0.4-0.3-0.6-0.6c-0.1-0.2-0.2-0.5-0.2-0.8c0-0.3,0.1-0.6,0.2-0.8
			c0.1-0.2,0.3-0.4,0.6-0.6c0.2-0.1,0.5-0.2,0.8-0.2c0.3,0,0.6,0.1,0.8,0.2c0.2,0.1,0.4,0.3,0.5,0.6c0.1,0.2,0.2,0.5,0.2,0.8
			c0,0,0,0.1,0,0.1c0,0,0,0.1,0,0.1H68v-0.4h2.3l-0.2,0.1c0-0.2,0-0.4-0.1-0.5c-0.1-0.2-0.2-0.3-0.4-0.4c-0.2-0.1-0.3-0.1-0.5-0.1
			c-0.2,0-0.4,0-0.5,0.1s-0.3,0.2-0.4,0.4s-0.1,0.3-0.1,0.5v0.1c0,0.2,0,0.4,0.1,0.6c0.1,0.2,0.2,0.3,0.4,0.4
			c0.2,0.1,0.4,0.1,0.6,0.1c0.2,0,0.4,0,0.5-0.1c0.2-0.1,0.3-0.2,0.4-0.3l0.3,0.4c-0.1,0.2-0.3,0.3-0.5,0.4
			C69.7,21.2,69.5,21.2,69.2,21.2z"/>
	</g>
</g>
</svg>
